<svg width="27" height="27" viewBox="0 0 27 27" fill="none" xmlns="http://www.w3.org/2000/svg">
<path d="M13.0546 2.33609C16.4901 2.33609 16.9023 2.33609 18.2765 2.47351C19.5132 2.47351 20.2003 2.74834 20.75 2.88576C21.2997 3.16059 21.8493 3.43543 22.2616 3.84768C22.6738 4.25993 22.9487 4.8096 23.2235 5.35927C23.3609 5.77152 23.6357 6.45861 23.6357 7.83278C23.6357 9.20695 23.7732 9.6192 23.7732 13.0546C23.7732 16.4901 23.7732 16.9023 23.6357 18.2765C23.6357 19.5132 23.3609 20.2003 23.2235 20.75C22.9487 21.2997 22.6738 21.8493 22.2616 22.2616C21.8493 22.6738 21.4371 22.9487 20.75 23.2235C20.3377 23.3609 19.6507 23.6357 18.2765 23.6357C16.9023 23.6357 16.4901 23.7732 13.0546 23.7732C9.6192 23.7732 9.20695 23.7732 7.83278 23.6357C6.59602 23.6357 5.90894 23.3609 5.35927 23.2235C4.8096 22.9487 4.25993 22.6738 3.84768 22.2616C3.43543 21.8493 3.16059 21.2997 2.88576 20.75C2.74834 20.3377 2.47351 19.6507 2.47351 18.2765C2.47351 16.9023 2.33609 16.4901 2.33609 13.0546C2.33609 9.6192 2.33609 9.20695 2.47351 7.83278C2.47351 6.59602 2.74834 5.90894 2.88576 5.35927C3.16059 4.8096 3.43543 4.25993 3.84768 3.84768C4.25993 3.43543 4.8096 3.16059 5.35927 2.88576C5.77152 2.74834 6.45861 2.47351 7.83278 2.47351C9.20695 2.33609 9.6192 2.33609 13.0546 2.33609ZM13.0546 0C9.48178 0 9.06953 3.07151e-08 7.69536 0.137417C6.32119 0.137417 5.35927 0.412251 4.53477 0.687086C3.71026 0.96192 2.88576 1.51159 2.19867 2.19867C1.51159 2.88576 0.96192 3.71026 0.687086 4.53477C0.412251 5.35927 0.137417 6.32119 0.137417 7.69536C0.137417 9.06953 0 9.48178 0 13.0546C0 16.6275 3.07151e-08 17.0397 0.137417 18.4139C0.137417 19.7881 0.412251 20.75 0.687086 21.5745C0.96192 22.399 1.51159 23.2235 2.19867 23.9106C2.88576 24.5977 3.71026 25.1473 4.53477 25.4222C5.35927 25.697 6.32119 25.9718 7.69536 25.9718C9.06953 25.9718 9.48178 26.1093 13.0546 26.1093C16.6275 26.1093 17.0397 26.1093 18.4139 25.9718C19.7881 25.9718 20.75 25.697 21.5745 25.4222C22.399 25.1473 23.2235 24.5977 23.9106 23.9106C24.5977 23.2235 25.1473 22.399 25.4222 21.5745C25.697 20.75 25.9718 19.7881 25.9718 18.4139C25.9718 17.0397 26.1093 16.6275 26.1093 13.0546C26.1093 9.48178 26.1093 9.06953 25.9718 7.69536C25.9718 6.32119 25.697 5.35927 25.4222 4.53477C25.1473 3.71026 24.5977 2.88576 23.9106 2.19867C23.2235 1.51159 22.399 0.96192 21.5745 0.687086C20.75 0.412251 19.7881 0.137417 18.4139 0.137417C17.0397 3.07151e-08 16.6275 0 13.0546 0Z" fill="white"/>
<path d="M13.0547 6.32153C9.34447 6.32153 6.32129 9.34471 6.32129 13.055C6.32129 16.7652 9.34447 19.7884 13.0547 19.7884C16.765 19.7884 19.7882 16.7652 19.7882 13.055C19.7882 9.34471 16.765 6.32153 13.0547 6.32153ZM13.0547 17.4523C10.7186 17.4523 8.65738 15.5285 8.65738 13.055C8.65738 10.5815 10.7186 8.65763 13.0547 8.65763C15.3908 8.65763 17.4521 10.5815 17.4521 13.055C17.4521 15.5285 15.3908 17.4523 13.0547 17.4523Z" fill="white"/>
<path d="M20.0629 7.5576C20.8977 7.5576 21.5744 6.88084 21.5744 6.04601C21.5744 5.21119 20.8977 4.53442 20.0629 4.53442C19.228 4.53442 18.5513 5.21119 18.5513 6.04601C18.5513 6.88084 19.228 7.5576 20.0629 7.5576Z" fill="white"/>
</svg>
