<svg width="17" height="18" viewBox="0 0 17 18" fill="none" xmlns="http://www.w3.org/2000/svg">
<path d="M8.5 18C7.32453 18 6.22114 17.7727 5.18982 17.318C4.15851 16.8744 3.2575 16.2673 2.48679 15.4966C1.71608 14.7259 1.10894 13.8249 0.665362 12.7935C0.221787 11.7622 0 10.6588 0 9.48337C0 8.30789 0.221787 7.2045 0.665362 6.17319C1.10894 5.14188 1.71608 4.24087 2.48679 3.47016C3.2575 2.69945 4.15851 2.0923 5.18982 1.64873C6.22114 1.20515 7.32453 0.983366 8.5 0.983366C9.67547 0.983366 10.7789 1.20515 11.8102 1.64873C12.8415 2.0923 13.7425 2.69945 14.5132 3.47016C15.2839 4.24087 15.8911 5.14188 16.3346 6.17319C16.7782 7.2045 17 8.30789 17 9.48337C17 10.6588 16.7782 11.7622 16.3346 12.7935C15.8911 13.8249 15.2839 14.7259 14.5132 15.4966C13.7425 16.2673 12.8415 16.8744 11.8102 17.318C10.7789 17.7727 9.67547 18 8.5 18ZM8.5 2.29746C7.51305 2.29746 6.58154 2.48598 5.70548 2.86301C4.82942 3.24005 4.06425 3.75294 3.40998 4.40166C2.75571 5.05039 2.24005 5.81279 1.86301 6.68885C1.48598 7.56491 1.29746 8.49641 1.29746 9.48337C1.29746 10.4814 1.48598 11.4185 1.86301 12.2945C2.24005 13.1595 2.75571 13.9191 3.40998 14.5734C4.06425 15.2277 4.82942 15.7433 5.70548 16.1204C6.58154 16.4974 7.51305 16.6859 8.5 16.6859C9.48695 16.6859 10.4185 16.4974 11.2945 16.1204C12.1706 15.7433 12.9357 15.2277 13.59 14.5734C14.2443 13.9191 14.7599 13.1595 15.137 12.2945C15.514 11.4185 15.7025 10.4814 15.7025 9.48337C15.7025 8.49641 15.514 7.56491 15.137 6.68885C14.7599 5.81279 14.2443 5.05039 13.59 4.40166C12.9357 3.75294 12.1706 3.24005 11.2945 2.86301C10.4185 2.48598 9.48695 2.29746 8.5 2.29746ZM8.5 18C7.96771 18 7.49641 17.7505 7.08611 17.2515C6.6758 16.7635 6.3348 16.1204 6.06311 15.3219C5.79142 14.5235 5.5835 13.6142 5.43933 12.5939C5.29517 11.5737 5.22309 10.5369 5.22309 9.48337C5.22309 8.42988 5.29517 7.39302 5.43933 6.3728C5.5835 5.35258 5.79142 4.44325 6.06311 3.64481C6.3348 2.84638 6.6758 2.2032 7.08611 1.71526C7.49641 1.22733 7.96771 0.983366 8.5 0.983366C9.03229 0.983366 9.50359 1.22733 9.91389 1.71526C10.3242 2.2032 10.6652 2.84638 10.9369 3.64481C11.2086 4.44325 11.4165 5.35258 11.5607 6.3728C11.7048 7.39302 11.7769 8.42988 11.7769 9.48337C11.7769 10.5369 11.7048 11.5737 11.5607 12.5939C11.4165 13.6142 11.2086 14.5235 10.9369 15.3219C10.6652 16.1204 10.3242 16.7635 9.91389 17.2515C9.50359 17.7505 9.03229 18 8.5 18ZM8.5 2.29746C8.33366 2.29746 8.1396 2.45271 7.91781 2.76321C7.68493 3.07371 7.46869 3.53392 7.26908 4.14384C7.06947 4.75375 6.89759 5.50783 6.75342 6.40607C6.60926 7.29322 6.53718 8.31898 6.53718 9.48337C6.53718 10.6477 6.60926 11.6791 6.75342 12.5773C6.89759 13.4755 7.06947 14.2296 7.26908 14.8395C7.46869 15.4494 7.68493 15.9097 7.91781 16.2202C8.1396 16.5307 8.33366 16.6859 8.5 16.6859C8.66634 16.6859 8.8604 16.5307 9.08219 16.2202C9.31507 15.9097 9.53131 15.4494 9.73092 14.8395C9.93053 14.2296 10.1024 13.4755 10.2466 12.5773C10.3907 11.6791 10.4628 10.6477 10.4628 9.48337C10.4628 8.31898 10.3907 7.29322 10.2466 6.40607C10.1024 5.50783 9.93053 4.75375 9.73092 4.14384C9.53131 3.53392 9.31507 3.07371 9.08219 2.76321C8.8604 2.45271 8.66634 2.29746 8.5 2.29746ZM0.69863 8.83464H16.4012V10.1487H0.69863V8.83464Z" fill="white"/>
</svg>
