<svg width="22" height="16" viewBox="0 0 22 16" fill="none" xmlns="http://www.w3.org/2000/svg">
<path d="M20.4351 16H1.5802C1.1404 16 0.767085 15.8466 0.460251 15.5397C0.153417 15.2329 0 14.8596 0 14.4198V1.85495C0 1.42538 0.153417 1.05718 0.460251 0.750348C0.767085 0.443514 1.1404 0.290097 1.5802 0.290097H20.4351C20.8647 0.290097 21.2329 0.443514 21.5397 0.750348C21.8466 1.05718 22 1.42538 22 1.85495V14.4198C22 14.8596 21.8466 15.2329 21.5397 15.5397C21.2329 15.8466 20.8647 16 20.4351 16ZM1.5802 1.85495V14.4198H20.4351V1.85495H1.5802ZM10.7085 7.76151L0.444909 2.56067L1.15063 1.14923L10.7238 5.99721L20.5732 1.14923L21.2636 2.56067L10.7085 7.76151Z" fill="white"/>
</svg>
