<svg width="16" height="16" viewBox="0 0 16 16" fill="none" xmlns="http://www.w3.org/2000/svg">
<path d="M3.1875 6.92188C3.51042 7.55729 3.88021 8.16146 4.29688 8.73438C4.70312 9.29688 5.15104 9.82292 5.64062 10.3125C6.13021 10.8021 6.65104 11.25 7.20312 11.6562C7.76562 12.0625 8.35417 12.4271 8.96875 12.75L9.04688 12.7812L11 10.8281C11.0729 10.7552 11.1641 10.6953 11.2734 10.6484C11.3828 10.6016 11.4948 10.5781 11.6094 10.5781C11.6615 10.5781 11.7135 10.5807 11.7656 10.5859C11.8177 10.5911 11.8646 10.6042 11.9062 10.625C12.375 10.7812 12.875 10.9036 13.4062 10.9922C13.9375 11.0807 14.4844 11.125 15.0469 11.125C15.0573 11.125 15.0677 11.125 15.0781 11.125C15.0885 11.125 15.099 11.125 15.1094 11.125C15.349 11.125 15.5573 11.2109 15.7344 11.3828C15.9115 11.5547 16 11.7656 16 12.0156V15.125C16 15.3646 15.9115 15.5703 15.7344 15.7422C15.5573 15.9141 15.349 16 15.1094 16C15.099 16 15.0938 16 15.0938 16C13.0104 16 11.0521 15.6042 9.21875 14.8125C7.38542 14.0208 5.78646 12.9427 4.42188 11.5781C3.05729 10.2135 1.97917 8.61458 1.1875 6.78125C0.395833 4.94792 0 2.98958 0 0.90625C0 0.90625 0 0.901042 0 0.890625C0 0.651042 0.0859375 0.442708 0.257812 0.265625C0.429688 0.088542 0.635417 0 0.875 0H4C4.23958 0 4.44531 0.088542 4.61719 0.265625C4.78906 0.442708 4.875 0.651042 4.875 0.890625C4.875 0.901042 4.875 0.90625 4.875 0.90625C4.875 1.47917 4.92188 2.03906 5.01562 2.58594C5.10938 3.13281 5.23958 3.66146 5.40625 4.17188L5.39062 4.09375C5.40104 4.13542 5.41146 4.17969 5.42188 4.22656C5.43229 4.27344 5.4375 4.31771 5.4375 4.35938C5.4375 4.48438 5.41406 4.60417 5.36719 4.71875C5.32031 4.83333 5.25521 4.93229 5.17188 5.01562L3.1875 6.92188Z" fill="white"/>
</svg>
